<svg viewBox="0 0 229 74" fill="none" xmlns="http://www.w3.org/2000/svg">
<g filter="url(#filter0_d)">
<path d="M42.9492 29.5508L42.7852 29.5234L32.1211 59H26.7617L16.1523 29.6328L15.9883 29.6602L16.7539 47.1328V53.3945L21.0195 54.2148V59H4.53125V54.2148L8.76953 53.3945V24.8203L4.53125 24V19.1875H8.76953H19.1875L29.332 48.5273H29.4961L39.7227 19.1875H54.4336V24L50.168 24.8203V53.3945L54.4336 54.2148V59H37.9453V54.2148L42.1836 53.3945V47.1328L42.9492 29.5508ZM57.4961 43.9336C57.4961 39.5221 58.7266 35.9128 61.1875 33.1055C63.6667 30.2799 67.0846 28.8672 71.4414 28.8672C75.8164 28.8672 79.2344 30.2708 81.6953 33.0781C84.1745 35.8854 85.4141 39.5039 85.4141 43.9336V44.5078C85.4141 48.9557 84.1745 52.5833 81.6953 55.3906C79.2344 58.1797 75.8346 59.5742 71.4961 59.5742C67.1029 59.5742 63.6667 58.1797 61.1875 55.3906C58.7266 52.5833 57.4961 48.9557 57.4961 44.5078V43.9336ZM65.4805 44.5078C65.4805 47.2057 65.9544 49.375 66.9023 51.0156C67.8503 52.638 69.3815 53.4492 71.4961 53.4492C73.556 53.4492 75.0599 52.6289 76.0078 50.9883C76.974 49.3477 77.457 47.1875 77.457 44.5078V43.9336C77.457 41.3086 76.974 39.1667 76.0078 37.5078C75.0417 35.849 73.5195 35.0195 71.4414 35.0195C69.3633 35.0195 67.8503 35.849 66.9023 37.5078C65.9544 39.1667 65.4805 41.3086 65.4805 43.9336V44.5078ZM87.957 34.2266V29.4141H99.6328L99.9609 33.3242C100.909 31.9023 102.094 30.8086 103.516 30.043C104.956 29.2591 106.615 28.8672 108.492 28.8672C110.388 28.8672 112.01 29.2865 113.359 30.125C114.708 30.9635 115.729 32.2305 116.422 33.9258C117.333 32.3398 118.518 31.1003 119.977 30.207C121.435 29.3138 123.148 28.8672 125.117 28.8672C128.034 28.8672 130.331 29.8789 132.008 31.9023C133.703 33.9076 134.551 36.9701 134.551 41.0898V53.3945L138.406 54.2148V59H123.121V54.2148L126.566 53.3945V41.0625C126.566 38.8203 126.202 37.2617 125.473 36.3867C124.743 35.5117 123.659 35.0742 122.219 35.0742C121.089 35.0742 120.104 35.3294 119.266 35.8398C118.445 36.332 117.789 37.0247 117.297 37.918C117.297 38.2643 117.306 38.5651 117.324 38.8203C117.342 39.0573 117.352 39.3034 117.352 39.5586V53.3945L120.578 54.2148V59H106.168V54.2148L109.395 53.3945V41.0625C109.395 38.875 109.03 37.3346 108.301 36.4414C107.572 35.5299 106.478 35.0742 105.02 35.0742C103.944 35.0742 102.996 35.2839 102.176 35.7031C101.374 36.1042 100.708 36.6784 100.18 37.4258V53.3945L103.625 54.2148V59H88.3672V54.2148L92.2227 53.3945V35.0469L87.957 34.2266ZM154.895 59.5742C150.629 59.5742 147.22 58.207 144.668 55.4727C142.116 52.7383 140.84 49.2656 140.84 45.0547V43.9609C140.84 39.5677 142.043 35.9492 144.449 33.1055C146.874 30.2617 150.118 28.849 154.184 28.8672C158.176 28.8672 161.275 30.0703 163.48 32.4766C165.686 34.8828 166.789 38.1367 166.789 42.2383V46.5859H149.125L149.07 46.75C149.216 48.7005 149.863 50.3047 151.012 51.5625C152.178 52.8203 153.755 53.4492 155.742 53.4492C157.51 53.4492 158.978 53.276 160.145 52.9297C161.311 52.5651 162.587 52 163.973 51.2344L166.133 56.1562C164.911 57.1224 163.326 57.9336 161.375 58.5898C159.443 59.2461 157.283 59.5742 154.895 59.5742ZM154.184 35.0195C152.707 35.0195 151.54 35.5846 150.684 36.7148C149.827 37.8451 149.298 39.3307 149.098 41.1719L149.18 41.3086H158.969V40.5977C158.969 38.9023 158.568 37.5534 157.766 36.5508C156.982 35.5299 155.788 35.0195 154.184 35.0195ZM170.152 54.2148L173.98 53.3945V35.0469L169.742 34.2266V29.4141H181.418L181.773 33.6523C182.758 32.1393 183.97 30.9635 185.41 30.125C186.85 29.2865 188.464 28.8672 190.25 28.8672C193.24 28.8672 195.573 29.806 197.25 31.6836C198.927 33.5612 199.766 36.5052 199.766 40.5156V53.3945L203.594 54.2148V59H188.336V54.2148L191.754 53.3945V40.543C191.754 38.556 191.353 37.1523 190.551 36.332C189.749 35.4935 188.536 35.0742 186.914 35.0742C185.857 35.0742 184.909 35.293 184.07 35.7305C183.232 36.1497 182.53 36.7513 181.965 37.5352V53.3945L185.191 54.2148V59H170.152V54.2148ZM217.922 22.168V29.4141H223.117V35.0195H217.922V50.0859C217.922 51.2344 218.159 52.0547 218.633 52.5469C219.107 53.0391 219.745 53.2852 220.547 53.2852C221.094 53.2852 221.568 53.2669 221.969 53.2305C222.388 53.1758 222.853 53.0938 223.363 52.9844L224.047 58.7539C223.154 59.0273 222.27 59.2279 221.395 59.3555C220.52 59.5013 219.572 59.5742 218.551 59.5742C215.798 59.5742 213.674 58.8177 212.18 57.3047C210.703 55.7917 209.965 53.3945 209.965 50.1133V35.0195H205.617V29.4141H209.965V22.168H217.922Z" fill="white"/>
<path d="M68.7051 9.20312V11.9014H67.7734L67.6943 10.0996H64.1436V21.1123L65.5762 21.2266V22H61.6562V21.2266L63.0889 21.1123V10.0996H59.5381L59.4678 11.9014H58.5273V9.20312H68.7051ZM69.7949 9.07129V8.28906H72.2734V14.1162C72.5898 13.5479 73.0117 13.1055 73.5391 12.7891C74.0664 12.4727 74.6816 12.3145 75.3848 12.3145C76.3867 12.3145 77.1543 12.625 77.6875 13.2461C78.2266 13.8672 78.4961 14.8311 78.4961 16.1377V21.1123L79.9287 21.2266V22H76.0088V21.2266L77.4414 21.1123V16.1201C77.4414 15.0889 77.2363 14.3506 76.8262 13.9053C76.4219 13.4541 75.8623 13.2285 75.1475 13.2285C74.4268 13.2285 73.8232 13.4189 73.3369 13.7998C72.8564 14.1748 72.502 14.6758 72.2734 15.3027V21.1123L73.7061 21.2266V22H69.7949V21.2266L71.2275 21.1123V9.18555L69.7949 9.07129ZM85.6152 22.1846C84.4199 22.1846 83.4297 21.748 82.6445 20.875C81.8594 19.9961 81.4668 18.8799 81.4668 17.5264V17.043C81.4668 15.6836 81.8564 14.5557 82.6357 13.6592C83.4209 12.7627 84.3672 12.3145 85.4746 12.3145C86.6406 12.3145 87.5576 12.6836 88.2256 13.4219C88.8936 14.1602 89.2275 15.1445 89.2275 16.375V17.2715H82.5127V17.5264C82.5127 18.5928 82.7969 19.4893 83.3652 20.2158C83.9395 20.9365 84.6895 21.2969 85.6152 21.2969C86.2656 21.2969 86.8223 21.2061 87.2852 21.0244C87.748 20.8428 88.1436 20.582 88.4717 20.2422L88.9199 20.9629C88.5625 21.3379 88.1113 21.6367 87.5664 21.8594C87.0215 22.0762 86.3711 22.1846 85.6152 22.1846ZM85.4746 13.2109C84.7012 13.2109 84.0479 13.5098 83.5146 14.1074C82.9873 14.6992 82.6797 15.4434 82.5918 16.3398L82.6094 16.3838H88.1816V16.1201C88.1816 15.2939 87.9385 14.6025 87.4521 14.0459C86.9658 13.4893 86.3066 13.2109 85.4746 13.2109ZM100.425 9.20312C101.755 9.20312 102.789 9.48438 103.527 10.0469C104.271 10.6035 104.644 11.4443 104.644 12.5693C104.644 13.2256 104.456 13.7969 104.081 14.2832C103.712 14.7695 103.208 15.1064 102.569 15.2939C103.349 15.4346 103.981 15.8008 104.468 16.3926C104.954 16.9844 105.197 17.667 105.197 18.4404C105.197 19.583 104.825 20.4619 104.081 21.0771C103.343 21.6924 102.353 22 101.11 22H95.2568V21.2266L96.6895 21.1123V10.0996L95.2568 9.98535V9.20312H96.6895H100.425ZM97.7354 15.8301V21.1123H101.11C102.054 21.1123 102.795 20.8809 103.334 20.418C103.873 19.9492 104.143 19.2959 104.143 18.458C104.143 17.6904 103.896 17.0605 103.404 16.5684C102.918 16.0762 102.209 15.8301 101.277 15.8301H97.7354ZM97.7354 14.9424H100.68C101.605 14.9424 102.32 14.7402 102.824 14.3359C103.334 13.9258 103.589 13.3252 103.589 12.5342C103.589 11.7256 103.319 11.1191 102.78 10.7148C102.241 10.3047 101.456 10.0996 100.425 10.0996H97.7354V14.9424ZM109.381 12.4902L109.513 14.0723V14.1865C109.782 13.6006 110.148 13.1436 110.611 12.8154C111.08 12.4814 111.634 12.3145 112.272 12.3145C112.407 12.3145 112.536 12.3262 112.659 12.3496C112.788 12.3672 112.894 12.3877 112.976 12.4111L112.835 13.3955L112.053 13.3428C111.391 13.3428 110.846 13.5303 110.418 13.9053C109.996 14.2744 109.694 14.7842 109.513 15.4346V21.1123L110.945 21.2266V22H107.034V21.2266L108.467 21.1123V13.3867L107.034 13.2725V12.4902H108.467H109.381ZM114.276 21.2266L115.709 21.1123V13.3867L114.276 13.2725V12.4902H116.755V21.1123L118.188 21.2266V22H114.276V21.2266ZM116.755 9.76562H115.709V8.28906H116.755V9.76562ZM119.998 17.3242C119.998 15.8066 120.32 14.5938 120.965 13.6855C121.615 12.7715 122.515 12.3145 123.663 12.3145C124.337 12.3145 124.92 12.4639 125.412 12.7627C125.91 13.0557 126.32 13.4717 126.643 14.0107L126.766 12.4902H127.653V21.877C127.653 23.1016 127.322 24.0684 126.66 24.7773C125.998 25.4863 125.075 25.8408 123.892 25.8408C123.435 25.8408 122.945 25.7852 122.424 25.6738C121.908 25.5625 121.457 25.4102 121.07 25.2168L121.352 24.3291C121.732 24.5107 122.131 24.6514 122.547 24.751C122.969 24.8506 123.411 24.9004 123.874 24.9004C124.776 24.9004 125.456 24.6338 125.913 24.1006C126.37 23.5674 126.599 22.8262 126.599 21.877V20.6729C126.276 21.1592 125.869 21.5342 125.377 21.7979C124.885 22.0557 124.308 22.1846 123.646 22.1846C122.503 22.1846 121.609 21.7598 120.965 20.9102C120.32 20.0605 119.998 18.9268 119.998 17.5088V17.3242ZM121.053 17.5088C121.053 18.6514 121.284 19.5654 121.747 20.251C122.216 20.9307 122.913 21.2705 123.839 21.2705C124.524 21.2705 125.093 21.1152 125.544 20.8047C126.001 20.4941 126.353 20.0664 126.599 19.5215V15.1094C126.364 14.5527 126.027 14.1016 125.588 13.7559C125.148 13.4043 124.571 13.2285 123.856 13.2285C122.931 13.2285 122.23 13.6094 121.756 14.3711C121.287 15.1328 121.053 16.1172 121.053 17.3242V17.5088ZM129.736 9.07129V8.28906H132.215V14.1162C132.531 13.5479 132.953 13.1055 133.48 12.7891C134.008 12.4727 134.623 12.3145 135.326 12.3145C136.328 12.3145 137.096 12.625 137.629 13.2461C138.168 13.8672 138.438 14.8311 138.438 16.1377V21.1123L139.87 21.2266V22H135.95V21.2266L137.383 21.1123V16.1201C137.383 15.0889 137.178 14.3506 136.768 13.9053C136.363 13.4541 135.804 13.2285 135.089 13.2285C134.368 13.2285 133.765 13.4189 133.278 13.7998C132.798 14.1748 132.443 14.6758 132.215 15.3027V21.1123L133.647 21.2266V22H129.736V21.2266L131.169 21.1123V9.18555L129.736 9.07129ZM143.869 10.0557V12.4902H145.961V13.3516H143.869V19.5479C143.869 20.1689 143.98 20.6113 144.203 20.875C144.432 21.1328 144.733 21.2617 145.108 21.2617C145.278 21.2617 145.442 21.2559 145.601 21.2441C145.765 21.2266 145.952 21.2002 146.163 21.165L146.321 21.9473C146.146 22.0234 145.932 22.082 145.68 22.123C145.428 22.1641 145.176 22.1846 144.924 22.1846C144.256 22.1846 143.734 21.9736 143.359 21.5518C142.99 21.1299 142.806 20.4619 142.806 19.5479V13.3516H141.171V12.4902H142.806V10.0557H143.869ZM147.728 17.1045C147.728 15.7041 148.111 14.5557 148.879 13.6592C149.646 12.7627 150.663 12.3145 151.929 12.3145C153.2 12.3145 154.22 12.7627 154.987 13.6592C155.755 14.5557 156.139 15.7041 156.139 17.1045V17.3945C156.139 18.8008 155.755 19.9521 154.987 20.8486C154.226 21.7393 153.212 22.1846 151.946 22.1846C150.669 22.1846 149.646 21.7393 148.879 20.8486C148.111 19.9521 147.728 18.8008 147.728 17.3945V17.1045ZM148.782 17.3945C148.782 18.4961 149.061 19.4219 149.617 20.1719C150.174 20.9219 150.95 21.2969 151.946 21.2969C152.925 21.2969 153.692 20.9219 154.249 20.1719C154.806 19.4219 155.084 18.4961 155.084 17.3945V17.1045C155.084 16.0205 154.803 15.1006 154.24 14.3447C153.684 13.5889 152.913 13.2109 151.929 13.2109C150.944 13.2109 150.174 13.5889 149.617 14.3447C149.061 15.1006 148.782 16.0205 148.782 17.1045V17.3945ZM157.659 21.2266L159.092 21.1123V13.3867L157.659 13.2725V12.4902H160.023L160.12 14.1514C160.425 13.5654 160.835 13.1143 161.351 12.7979C161.872 12.4756 162.487 12.3145 163.196 12.3145C164.228 12.3145 165.013 12.6309 165.552 13.2637C166.091 13.8906 166.36 14.8721 166.36 16.208V21.1123L167.793 21.2266V22H163.873V21.2266L165.306 21.1123V16.2168C165.306 15.127 165.101 14.3564 164.69 13.9053C164.286 13.4541 163.709 13.2285 162.959 13.2285C162.221 13.2285 161.617 13.4248 161.148 13.8174C160.686 14.2041 160.352 14.7197 160.146 15.3643V21.1123L161.579 21.2266V22H157.659V21.2266Z" fill="white"/>
</g>
<defs>
<filter id="filter0_d" x="0.53125" y="8.28906" width="227.516" height="59.2852" filterUnits="userSpaceOnUse" color-interpolation-filters="sRGB">
<feFlood flood-opacity="0" result="BackgroundImageFix"/>
<feColorMatrix in="SourceAlpha" type="matrix" values="0 0 0 0 0 0 0 0 0 0 0 0 0 0 0 0 0 0 127 0"/>
<feOffset dy="4"/>
<feGaussianBlur stdDeviation="2"/>
<feColorMatrix type="matrix" values="0 0 0 0 0 0 0 0 0 0 0 0 0 0 0 0 0 0 0.25 0"/>
<feBlend mode="normal" in2="BackgroundImageFix" result="effect1_dropShadow"/>
<feBlend mode="normal" in="SourceGraphic" in2="effect1_dropShadow" result="shape"/>
</filter>
</defs>
</svg>
